<svg width="257" height="257" viewBox="0 0 257 257" fill="none" xmlns="http://www.w3.org/2000/svg">
<g clip-path="url(#clip0_35_2)">
<path d="M196.95 0.0404358H60.95C27.8129 0.0404358 0.950012 26.9034 0.950012 60.0404V196.04C0.950012 229.178 27.8129 256.04 60.95 256.04H196.95C230.087 256.04 256.95 229.178 256.95 196.04V60.0404C256.95 26.9034 230.087 0.0404358 196.95 0.0404358Z" fill="#5865F2"/>
<mask id="mask0_35_2" style="mask-type:luminance" maskUnits="userSpaceOnUse" x="28" y="51" width="201" height="155">
<path d="M228.95 51.0404H28.95V205.97H228.95V51.0404Z" fill="white"/>
</mask>
<g mask="url(#mask0_35_2)">
<path d="M198.258 64.837C185.511 58.988 171.842 54.6787 157.549 52.2105C157.289 52.1629 157.029 52.2819 156.895 52.52C155.137 55.6468 153.189 59.726 151.826 62.9322C136.453 60.6308 121.16 60.6308 106.103 62.9322C104.739 59.6547 102.721 55.6468 100.955 52.52C100.821 52.2899 100.561 52.1709 100.3 52.2105C86.0159 54.6708 72.3463 58.9801 59.5911 64.837C59.4807 64.8846 59.3861 64.964 59.3232 65.0671C33.3949 103.803 26.2921 141.587 29.7765 178.903C29.7923 179.086 29.8947 179.26 30.0367 179.371C47.1434 191.934 63.7142 199.561 79.9773 204.616C80.2376 204.695 80.5134 204.6 80.679 204.386C84.5261 199.132 87.9554 193.593 90.8956 187.768C91.0692 187.426 90.9035 187.022 90.5489 186.887C85.1094 184.823 79.93 182.308 74.9477 179.451C74.5537 179.221 74.5221 178.657 74.8847 178.387C75.9331 177.601 76.9818 176.784 77.983 175.959C78.1641 175.808 78.4165 175.776 78.6294 175.871C111.361 190.815 146.796 190.815 179.141 175.871C179.354 175.768 179.607 175.8 179.796 175.951C180.797 176.776 181.845 177.601 182.902 178.387C183.264 178.657 183.241 179.221 182.847 179.451C177.864 182.363 172.685 184.823 167.238 186.879C166.883 187.014 166.725 187.426 166.899 187.768C169.902 193.585 173.331 199.124 177.107 204.378C177.265 204.6 177.549 204.695 177.809 204.616C194.151 199.561 210.722 191.934 227.829 179.371C227.978 179.26 228.073 179.093 228.089 178.911C232.259 135.77 221.104 98.2958 198.518 65.075C198.463 64.964 198.369 64.8846 198.258 64.837ZM95.7835 156.182C85.9292 156.182 77.8094 147.135 77.8094 136.024C77.8094 124.913 85.7717 115.866 95.7835 115.866C105.874 115.866 113.915 124.993 113.757 136.024C113.757 147.135 105.795 156.182 95.7835 156.182ZM162.24 156.182C152.385 156.182 144.266 147.135 144.266 136.024C144.266 124.913 152.228 115.866 162.24 115.866C172.33 115.866 180.371 124.993 180.214 136.024C180.214 147.135 172.33 156.182 162.24 156.182Z" fill="white"/>
</g>
</g>
<defs>
<clipPath id="clip0_35_2">
<rect width="256" height="256" fill="white" transform="translate(0.950012 0.0404358)"/>
</clipPath>
</defs>
</svg>
