<svg width="151" height="148" viewBox="0 0 151 148" fill="none" xmlns="http://www.w3.org/2000/svg">
<path fill-rule="evenodd" clip-rule="evenodd" d="M75.485 0.00500011C33.8005 0.00500011 0.000961304 33.7996 0.000961304 75.489C0.000961304 108.839 21.6307 137.133 51.6203 147.114C55.3943 147.814 56.7802 145.477 56.7802 143.484C56.7802 141.684 56.7102 135.737 56.6762 129.429C35.6765 133.996 31.2466 120.524 31.2466 120.524C27.8116 111.801 22.8647 109.48 22.8647 109.48C16.0148 104.795 23.3807 104.89 23.3807 104.89C30.9606 105.424 34.9505 112.67 34.9505 112.67C41.6844 124.209 52.6103 120.873 56.9182 118.944C57.5962 114.067 59.5512 110.735 61.7102 108.851C44.9444 106.945 27.3206 100.471 27.3206 71.5471C27.3206 63.3072 30.2686 56.5723 35.0965 51.2873C34.3135 49.3854 31.7296 41.7075 35.8295 31.3106C35.8295 31.3106 42.1674 29.2806 56.5892 39.0475C62.6122 37.3755 69.0691 36.5375 75.484 36.5075C81.8989 36.5375 88.3618 37.3755 94.3938 39.0475C108.802 29.2816 115.131 31.3096 115.131 31.3096C119.239 41.7055 116.656 49.3834 115.871 51.2843C120.711 56.5703 123.639 63.3042 123.639 71.5441C123.639 100.539 105.982 106.921 89.1738 108.79C91.8808 111.134 94.2938 115.727 94.2938 122.769C94.2938 132.869 94.2078 140.999 94.2078 143.484C94.2078 145.494 95.5647 147.846 99.3907 147.106C129.37 137.114 150.97 108.83 150.97 75.49C150.969 33.7996 117.173 0.00500011 75.485 0.00500011Z" fill="#1B1817"/>
<path d="M28.5986 108.379C28.4316 108.755 27.8416 108.869 27.3046 108.609C26.7546 108.363 26.4496 107.851 26.6266 107.475C26.7896 107.09 27.3796 106.983 27.9266 107.24C28.4746 107.487 28.7866 108.003 28.5986 108.379ZM31.6476 111.791C31.2876 112.125 30.5826 111.971 30.1076 111.443C29.6116 110.916 29.5206 110.211 29.8856 109.873C30.2556 109.54 30.9396 109.696 31.4326 110.223C31.9276 110.755 32.0246 111.453 31.6476 111.791ZM34.6236 116.141C34.1606 116.464 33.4036 116.163 32.9356 115.491C32.4726 114.819 32.4726 114.014 32.9456 113.691C33.4156 113.369 34.1606 113.661 34.6356 114.325C35.0956 115.008 35.0956 115.812 34.6236 116.141ZM38.7106 120.342C38.2966 120.798 37.4156 120.675 36.7706 120.052C36.1106 119.444 35.9266 118.58 36.3406 118.124C36.7606 117.667 37.6466 117.794 38.2966 118.414C38.9516 119.02 39.1506 119.89 38.7106 120.342ZM44.3356 122.779C44.1516 123.369 43.3056 123.639 42.4496 123.386C41.5946 123.128 41.0356 122.436 41.2096 121.839C41.3856 121.244 42.2396 120.964 43.0996 121.233C43.9526 121.49 44.5136 122.178 44.3356 122.779ZM50.5106 123.229C50.5306 123.852 49.8066 124.369 48.9106 124.379C48.0066 124.399 47.2756 123.895 47.2656 123.283C47.2656 122.653 47.9756 122.143 48.8756 122.128C49.7756 122.108 50.5106 122.611 50.5106 123.228M56.2606 122.254C56.3676 122.86 55.7446 123.484 54.8526 123.65C53.9766 123.812 53.1656 123.436 53.0546 122.835C52.9446 122.212 53.5796 121.589 54.4546 121.428C55.3476 121.272 56.1466 121.637 56.2606 122.254Z" fill="#1B1817"/>
</svg>
