<svg width="257" height="247" viewBox="0 0 257 247" fill="none" xmlns="http://www.w3.org/2000/svg">
<path d="M252.249 98.1342L251.921 97.1479L217.072 6.24518C216.414 4.43698 215.099 2.95755 213.455 1.97127C211.812 0.98498 210.003 0.491837 208.031 0.491837C206.058 0.491837 204.25 1.31374 202.771 2.46441C201.291 3.61508 200.141 5.25889 199.647 7.23146L176.141 79.2304H80.9642L57.4577 7.23146C56.9646 5.42327 55.8139 3.77946 54.3345 2.46441C52.855 1.31374 51.0468 0.491837 49.0743 0.491837C47.1017 0.491837 45.2935 0.820599 43.6497 1.97127C42.0059 2.95755 40.6908 4.43698 40.0333 6.24518L5.18451 97.1479L4.85575 98.1342C-5.50027 125.093 3.37632 155.503 26.3897 172.928H26.7184C26.7184 173.092 79.8135 212.872 79.8135 212.872L106.115 232.762L122.06 244.762C125.84 247.721 131.265 247.721 135.046 244.762L150.991 232.762L177.292 212.872L230.715 172.928C253.729 155.503 262.441 125.093 252.085 98.1342H252.249Z" fill="#E24329"/>
<path d="M252.249 98.1342L251.921 97.1479C234.661 100.764 218.716 107.997 205.072 118.189C204.908 118.189 163.648 149.586 128.47 176.051C154.443 195.777 177.127 212.872 177.127 212.872L230.551 172.928C253.564 155.503 262.277 125.093 251.921 98.1342H252.249Z" fill="#FC6D26"/>
<path d="M79.6492 212.872L105.95 232.762L121.895 244.762C125.676 247.721 131.1 247.721 134.881 244.762L150.826 232.762L177.127 212.872C177.127 212.872 154.443 195.777 128.47 176.051C102.334 195.777 79.6492 212.872 79.6492 212.872Z" fill="#FCA326"/>
<path d="M51.8688 118.189C38.2251 107.997 22.2802 100.6 5.02014 97.1479L4.69138 98.1342C-5.66463 125.093 3.21195 155.503 26.2253 172.928H26.5541C26.5541 173.092 79.6492 212.872 79.6492 212.872C79.6492 212.872 102.334 195.777 128.47 176.051C93.4572 149.586 52.1975 118.353 51.8688 118.189Z" fill="#FC6D26"/>
</svg>
