<svg width="180" height="180" viewBox="0 0 180 180" fill="none" xmlns="http://www.w3.org/2000/svg">
<g clip-path="url(#clip0_58_5)">
<path d="M90 180C139.706 180 180 139.706 180 90C180 40.2944 139.706 0 90 0C40.2944 0 0 40.2944 0 90C0 139.706 40.2944 180 90 180Z" fill="black"/>
<path d="M90 180C139.706 180 180 139.706 180 90C180 40.2944 139.706 0 90 0C40.2944 0 0 40.2944 0 90C0 139.706 40.2944 180 90 180Z" fill="black"/>
<path d="M149.5 157.5L69.1 54H54V126H66.1V69.4L140 164.9C143.3 162.6 146.5 160.2 149.5 157.5Z" fill="url(#paint0_linear_58_5)"/>
<path d="M115 54H127V126H115V54Z" fill="url(#paint1_linear_58_5)"/>
</g>
<defs>
<linearGradient id="paint0_linear_58_5" x1="93.23" y1="129.224" x2="128.73" y2="173.224" gradientUnits="userSpaceOnUse">
<stop stop-color="white"/>
<stop offset="1" stop-color="white" stop-opacity="0"/>
</linearGradient>
<linearGradient id="paint1_linear_58_5" x1="121.14" y1="53.98" x2="120.94" y2="106.853" gradientUnits="userSpaceOnUse">
<stop stop-color="white"/>
<stop offset="1" stop-color="white" stop-opacity="0"/>
</linearGradient>
<clipPath id="clip0_58_5">
<rect width="180" height="180" fill="white"/>
</clipPath>
</defs>
</svg>
