<svg width="256" height="268" viewBox="0 0 256 268" fill="none" xmlns="http://www.w3.org/2000/svg">
<path d="M16.0925 11.5385L164.09 0.608048C182.269 -0.952166 186.94 0.099865 198.37 8.40912L245.613 41.6907C253.406 47.4145 256 48.9747 256 55.2066V237.734C256 249.173 251.845 255.939 237.304 256.974L65.4399 267.378C54.5273 267.895 49.3295 266.335 43.6147 259.051L8.82636 213.814C2.5855 205.487 0 199.255 0 191.971V29.7261C0 20.3737 4.15463 12.5727 16.0925 11.5385Z" fill="white"/>
<path d="M164.09 0.608048L16.0925 11.5385C4.15463 12.5727 0 20.3737 0 29.7261V191.971C0 199.255 2.5855 205.487 8.82636 213.814L43.6147 259.051C49.3295 266.335 54.5273 267.895 65.4399 267.378L237.304 256.974C251.836 255.939 256 249.173 256 237.734V55.2066C256 49.2957 253.664 47.5928 246.79 42.5466C246.395 42.2617 245.999 41.9764 245.605 41.6907L198.37 8.40912C186.94 0.099865 182.269 -0.952166 164.09 0.608048ZM69.327 52.2199C55.294 53.165 52.1112 53.379 44.1407 46.8974L23.8757 30.7781C21.8163 28.6919 22.8505 26.0886 28.0393 25.5715L170.313 15.176C182.26 14.1329 188.483 18.2964 193.155 21.934L217.556 39.6134C218.599 40.1394 221.194 43.2509 218.073 43.2509L71.1458 52.0951L69.327 52.2199ZM52.9671 236.174V81.2221C52.9671 74.4552 55.0444 71.3348 61.2674 70.8088L230.02 60.9304C235.744 60.4133 238.329 64.0508 238.329 70.8088V224.726C238.329 231.493 237.286 237.217 227.943 237.734L66.4562 247.095C57.1128 247.612 52.9671 244.501 52.9671 236.174ZM212.376 89.5314C213.411 94.212 212.376 98.8927 207.696 99.4276L199.913 100.97V215.374C193.155 219.011 186.932 221.089 181.734 221.089C173.425 221.089 171.347 218.485 165.124 210.693L114.226 130.614V208.09L130.327 211.736C130.327 211.736 130.327 221.098 117.337 221.098L81.5234 223.175C80.4803 221.089 81.5234 215.891 85.1521 214.857L94.5044 212.262V109.823L81.5234 108.771C80.4803 104.09 83.0747 97.3324 90.3498 96.8064L128.776 94.2209L181.734 175.334V103.573L168.236 102.022C167.193 96.2893 171.347 92.1258 176.536 91.6176L212.376 89.5314Z" fill="black"/>
</svg>
