<svg width="24" height="24" viewBox="0 0 24 24" fill="none" xmlns="http://www.w3.org/2000/svg">
<path d="M7.19999 2.4H16.8C17.4365 2.4 18.047 2.65286 18.497 3.10295C18.9471 3.55303 19.2 4.16348 19.2 4.8V19.2C19.2 19.8365 18.9471 20.447 18.497 20.8971C18.047 21.3471 17.4365 21.6 16.8 21.6H7.19999C6.56347 21.6 5.95302 21.3471 5.50293 20.8971C5.05284 20.447 4.79999 19.8365 4.79999 19.2V4.8C4.79999 4.16348 5.05284 3.55303 5.50293 3.10295C5.95302 2.65286 6.56347 2.4 7.19999 2.4ZM7.19999 3.6C6.88173 3.6 6.5765 3.72643 6.35146 3.95147C6.12642 4.17652 5.99999 4.48174 5.99999 4.8V19.2C5.99999 19.5183 6.12642 19.8235 6.35146 20.0485C6.5765 20.2736 6.88173 20.4 7.19999 20.4H16.8C17.1182 20.4 17.4235 20.2736 17.6485 20.0485C17.8736 19.8235 18 19.5183 18 19.2V4.8C18 4.48174 17.8736 4.17652 17.6485 3.95147C17.4235 3.72643 17.1182 3.6 16.8 3.6H7.19999ZM15.6 7.8C15.6 7.94043 15.5508 8.07643 15.4609 8.18431C15.371 8.29219 15.2461 8.36512 15.108 8.3904L15 8.4H8.99999C8.85005 8.40028 8.70545 8.34441 8.59465 8.24339C8.48385 8.14238 8.41489 8.00354 8.40134 7.85422C8.38779 7.70489 8.43064 7.55591 8.52145 7.4366C8.61226 7.3173 8.74445 7.23631 8.89199 7.2096L8.99999 7.2H15C15.1591 7.2 15.3117 7.26322 15.4243 7.37574C15.5368 7.48826 15.6 7.64087 15.6 7.8ZM15.6 12C15.6 12.1404 15.5508 12.2764 15.4609 12.3843C15.371 12.4922 15.2461 12.5651 15.108 12.5904L15 12.6H8.99999C8.85005 12.6003 8.70545 12.5444 8.59465 12.4434C8.48385 12.3424 8.41489 12.2035 8.40134 12.0542C8.38779 11.9049 8.43064 11.7559 8.52145 11.6366C8.61226 11.5173 8.74445 11.4363 8.89199 11.4096L8.99999 11.4H15C15.1591 11.4 15.3117 11.4632 15.4243 11.5757C15.5368 11.6883 15.6 11.8409 15.6 12ZM15.6 16.2C15.6 16.3404 15.5508 16.4764 15.4609 16.5843C15.371 16.6922 15.2461 16.7651 15.108 16.7904L15 16.8H8.99999C8.85005 16.8003 8.70545 16.7444 8.59465 16.6434C8.48385 16.5424 8.41489 16.4035 8.40134 16.2542C8.38779 16.1049 8.43064 15.9559 8.52145 15.8366C8.61226 15.7173 8.74445 15.6363 8.89199 15.6096L8.99999 15.6H15C15.1591 15.6 15.3117 15.6632 15.4243 15.7757C15.5368 15.8883 15.6 16.0409 15.6 16.2Z" fill="#757575"/>
</svg>
