<svg width="256" height="298" viewBox="0 0 256 298" fill="none" xmlns="http://www.w3.org/2000/svg">
<g clip-path="url(#clip0_35_40)">
<path d="M34.8311 0L119.52 78.0282V78.0104V0.180047H136.006V78.3774L221.074 0V88.9638H256V217.286H221.181V296.504L136.006 221.671V297.363H119.52V222.904L34.9271 297.412V217.286H0V88.9638H34.8311V0ZM107.092 105.248H16.4856V201.001H34.9064V170.797L107.092 105.248ZM51.4118 178.023V261.075L119.52 201.087V116.161L51.4118 178.023ZM136.48 200.294V116.081L204.608 177.946V217.286H204.696V260.227L136.48 200.294ZM221.181 201.001H239.514V105.248H149.583L221.181 170.119V201.001ZM204.588 88.9638V37.4572L148.684 88.9638H204.588ZM107.22 88.9638H51.3167V37.4572L107.22 88.9638Z" fill="#3F7E8B"/>
</g>
<defs>
<clipPath id="clip0_35_40">
<rect width="256" height="298" fill="white"/>
</clipPath>
</defs>
</svg>
